<svg xmlns="http://www.w3.org/2000/svg" viewBox="-26 0 254 254"><path fill="#000" stroke="#000" stroke-width="0.8" stroke-linejoin="round" fill-rule="evenodd" d="M53 249.5C52.8 249.1 52.5 249 50.5 249C48.5 249 48.2 248.9 48 248.5C47.8 248 47.5 248 45 248C42.5 248 42.2 248 42 247.5C41.7 247 41.5 247 32 247C22.5 247 22.3 247 22 247.5C21.8 247.9 21.5 248 20 248C18.5 248 18.2 248.1 18 248.5C17.8 248.9 17.5 249 16 249C14.5 249 14.2 248.9 14 248.5C13.9 248.2 13.6 248 13.4 248C12.7 248 13 247.5 14.2 246.2C15.5 245 15.5 245 17.1 245C18.5 245 18.8 244.9 19 244.5C19.2 244 19.5 244 22 244C24.5 244 24.8 244 25 243.5C25.3 243 25.5 243 32.5 243C39.5 243 39.7 243 40 243.5C40.2 244 40.5 244 43.5 244C46.5 244 46.8 244 47 244.5C47.2 244.9 47.5 245 49.5 245C51.5 245 51.8 245.1 52 245.5C52.3 246 52.5 246 60.5 246C68.5 246 68.7 246 69 245.5C69.2 245 69.5 245 72 245C74.5 245 74.8 245 75 244.5C75.2 244 75.5 244 78.5 244C81.5 244 81.8 244 82 243.5C82.3 243 82.5 243 94 243C105.5 243 105.7 243 106 243.5C106.3 244 106.5 244 110.5 244C114.5 244 114.7 244 115 244.5C115.3 245 115.5 245 126.5 245C137.5 245 137.7 245 138 244.5C138.2 244 138.5 244 142 244C145.5 244 145.8 244 146 243.5C146.3 243 146.5 243 150.5 243C154.5 243 154.7 243 155 242.5C155.4 241.7 175.6 241.7 176 242.5C176.3 243 176.6 243 183.1 243.1L189.9 243.1L190 244.3C190 245.4 189.9 245.6 189.3 246.3L188.5 247L183.4 247C178.5 247 178.3 247 178 246.5C177.7 246 177.5 246 165.5 246C153.5 246 153.3 246 153 246.5C152.7 247 152.5 247 148 247C143.5 247 143.3 247 143 247.5C142.8 248 142.5 248 139 248C135.5 248 135.2 248 135 248.5C134.7 249 134.5 249 126 249C117.5 249 117.3 249 117 248.5C116.8 248 116.5 248 113 248C109.5 248 109.2 248 109 247.5C108.7 247 108.5 247 104 247C99.5 247 99.3 247 99 246.5C98.7 246 98.5 246 93 246C87.5 246 87.3 246 87 246.5C86.8 247 86.5 247 83 247C79.5 247 79.2 247 79 247.5C78.8 248 78.5 248 76 248C73.5 248 73.2 248 73 248.5C72.8 248.9 72.5 249 70.5 249C68.5 249 68.2 249.1 68 249.5C67.7 250 67.5 250 60.5 250C53.5 250 53.3 250 53 249.5ZM65 240.5C64.8 240 64.5 240 62 240C59.5 240 59.2 240 59 239.5C58.8 239.1 58.5 239 57 239C55.5 239 55.2 238.9 55 238.5C54.7 238 54.5 238 50.6 238C46.6 238 46.4 238 46 237.4L45.5 236.9L45 237.5L44.5 238.1L44 237.6C43.3 236.7 34.4 236.7 34 237.5C33.7 238 33.5 238 27.5 238C21.5 238 21.3 238 21 238.5C20.8 239 20.5 239 18 239C15.5 239 15.2 239 15 239.5C14.6 240.2 13.6 240.1 12.7 239.3C12 238.6 12 238.4 12 236.4C12 234.5 11.9 234.2 11.5 234C11 233.8 11 233.5 11 231C11 228.5 11 228.2 10.5 228C10.1 227.8 10 227.5 10 226.5C10 225.5 9.9 225.2 9.5 225C9.2 224.8 9 224.5 9 224C9 223.5 8.8 223.2 8.5 223C8.2 222.8 8 222.5 8 222.1C8 221.6 7.5 220.9 6 219.5C4.1 217.7 4 217.5 4 216.5C4 214.8 5 214 7.1 214C8.5 214 8.8 213.9 9 213.5C9.2 213 9.5 213 13 213C16.5 213 16.8 213 17 212.5C17.3 212 17.5 212 22 212C26.5 212 26.7 212 27 211.5C27.3 211 27.5 211 34 211C40.5 211 40.7 211 41 210.5C41.3 210 41.5 210 52.5 210C63.5 210 63.7 210 64 209.5C64.3 209 64.5 209 81.4 209L98.5 209L99.3 208.3C99.8 207.7 100 207.3 100 206.8L99.9 206.1L97.6 206.1C95.6 206 95.2 205.9 95 205.5C94.6 204.7 86.4 204.7 86 205.5C85.7 206 85.5 206 73.5 206C61.5 206 61.3 206 61 206.5C60.7 207 60.5 207 51.5 207C42.5 207 42.3 207 42 207.5C41.7 208 41.5 208 35 208C28.5 208 28.3 208 28 208.5C27.8 209 27.5 209 24 209C20.5 209 20.3 209 20 209.5C19.7 210 19.5 210 16.9 209.9L14.1 209.9L14.1 208.1C14 206.5 14 206.2 14.5 206C14.9 205.8 15 205.5 15 204.5C15 203.5 15.1 203.2 15.5 203C15.9 202.8 16 202.5 16 201.5C16 200.5 16.1 200.2 16.5 200C16.8 199.8 17 199.5 17 199C17 198.5 17.2 198.2 17.5 198C17.9 197.8 18 197.5 18 196.5C18 195.5 18.1 195.2 18.5 195C18.8 194.8 19 194.5 19 194C19 193.5 19.2 193.2 19.5 193C19.9 192.8 20 192.5 20 191.5C20 190.5 20.1 190.2 20.5 190C20.9 189.8 21 189.5 21 188.5C21 187.5 21.1 187.2 21.5 187C21.8 186.8 22 186.5 22 186C22 185.5 22.2 185.2 22.5 185C22.9 184.8 23 184.5 23 183.5C23 182.5 23.1 182.2 23.5 182C23.8 181.8 24 181.5 24 181C24 180.5 24.2 180.2 24.5 180C24.9 179.8 25 179.5 25 178.5C25 177.5 25.1 177.2 25.5 177C25.8 176.8 26 176.5 26 176C26 175.5 26.2 175.2 26.5 175C26.9 174.8 27 174.5 27 173.5C27 172.5 27.1 172.2 27.5 172C27.9 171.8 28 171.5 28 170.5C28 169.5 28.1 169.2 28.5 169C28.8 168.8 29 168.5 29 168C29 167.5 29.2 167.2 29.5 167C29.9 166.8 30 166.5 30 165.5C30 164.5 30.1 164.2 30.5 164C30.9 163.8 31 163.5 31 162.5C31 161.5 31.1 161.2 31.5 161C31.8 160.8 32 160.5 32 160C32 159.5 32.2 159.2 32.5 159C32.9 158.8 33 158.5 33 157.5C33 156.5 33.1 156.2 33.5 156C33.8 155.8 34 155.5 34 155C34 154.5 34.2 154.2 34.5 154C34.9 153.8 35 153.5 35 152.5C35 151.5 35.1 151.2 35.5 151C35.8 150.8 36 150.5 36 150C36 149.5 36.2 149.2 36.5 149C36.9 148.8 37 148.5 37 147.5C37 146.5 37.1 146.2 37.5 146C37.9 145.8 38 145.5 38 144.5C38 143.5 38.1 143.2 38.5 143C38.8 142.8 39 142.5 39 142C39 141.5 39.2 141.2 39.5 141C39.9 140.8 40 140.5 40 139.5C40 138.5 40.1 138.2 40.5 138C40.8 137.8 41 137.5 41 137C41 136.5 41.2 136.2 41.5 136C41.9 135.8 42 135.5 42 134.5C42 133.5 42.1 133.2 42.5 133C42.8 132.8 43 132.5 43 132C43 131.5 43.2 131.2 43.5 131C43.9 130.8 44 130.5 44 129.5C44 128.5 44.1 128.2 44.5 128C44.9 127.8 45 127.5 45 126.5C45 125.5 45.1 125.2 45.5 125C45.8 124.8 46 124.5 46 124C46 123.5 46.2 123.2 46.5 123C46.9 122.8 47 122.5 47 121.5C47 120.5 47.1 120.2 47.5 120C47.8 119.8 48 119.5 48 119C48 118.5 48.2 118.2 48.5 118C48.9 117.8 49 117.5 49 116.5C49 115.5 49.1 115.2 49.5 115C49.9 114.8 50 114.5 50 113.5C50 112.5 50.1 112.2 50.5 112C50.8 111.8 51 111.5 51 111C51 110.5 51.2 110.2 51.5 110C51.9 109.8 52 109.5 52 108.5C52 107.5 52.1 107.2 52.5 107C52.8 106.8 53 106.5 53 106C53 105.5 53.2 105.2 53.5 105C53.9 104.8 54 104.5 54 103.5C54 102.5 54.1 102.2 54.5 102C54.8 101.8 55 101.5 55 101C55 100.5 55.2 100.2 55.5 100C55.9 99.8 56 99.5 56 98.5C56 97.5 56.1 97.2 56.5 97C56.9 96.8 57 96.5 57 95.5C57 94.5 57.1 94.2 57.5 94C57.8 93.8 58 93.5 58 93C58 92.5 58.2 92.2 58.5 92C58.8 91.8 59 91.5 59 91C59 90.5 59.2 90.2 59.5 90C59.9 89.8 60 89.5 60 88.5C60 87.5 60.1 87.2 60.5 87C60.9 86.8 61 86.5 61 85.5C61 84.5 61.1 84.2 61.5 84C61.8 83.8 62 83.5 62 83C62 82.5 62.2 82.2 62.5 82C62.9 81.8 63 81.5 63 80.5C63 79.5 63.1 79.2 63.5 79C63.8 78.8 64 78.5 64 78C64 77.5 64.2 77.2 64.5 77C64.9 76.8 65 76.5 65 75.5C65 74.5 65.1 74.2 65.5 74C65.8 73.8 66 73.5 66 73C66 72.5 66.2 72.2 66.5 72C66.9 71.8 67 71.5 67 70.5C67 69.5 67.1 69.2 67.5 69C67.8 68.8 68 68.5 68 68C68 67.5 68.2 67.2 68.5 67C68.9 66.8 69 66.5 69 65.5C69 64.5 69.1 64.2 69.5 64C69.8 63.8 70 63.5 70 63C70 62.5 70.2 62.2 70.5 62C70.9 61.8 71 61.5 71 60.5C71 59.5 71.1 59.2 71.5 59C71.9 58.8 72 58.5 72 57.5C72 56.5 72.1 56.2 72.5 56C72.8 55.8 73 55.5 73 55C73 54.5 73.2 54.2 73.5 54C73.9 53.8 74 53.5 74 52.5C74 51.5 74.1 51.2 74.5 51C74.8 50.8 75 50.5 75 50C75 49.5 75.2 49.2 75.5 49C75.9 48.8 76 48.5 76 47.5C76 46.5 76.1 46.2 76.5 46C76.9 45.8 77 45.5 77 44.5C77 43.5 77.1 43.2 77.5 43C77.8 42.8 78 42.5 78 42C78 41.5 78.2 41.2 78.5 41C78.9 40.8 79 40.5 79 39.5C79 38.5 79.1 38.2 79.5 38C79.8 37.8 80 37.5 80 37C80 36.5 80.2 36.2 80.5 36C80.9 35.8 81 35.5 81 34.5C81 33.5 81.1 33.2 81.5 33C81.8 32.8 82 32.5 82 32C82 31.5 82.2 31.2 82.5 31C82.9 30.8 83 30.5 83 29.5C83 28.5 83.1 28.2 83.5 28C83.8 27.8 84 27.5 84 27C84 26.5 84.2 26.2 84.5 26C84.9 25.8 85 25.5 85 24.5C85 23.5 85.1 23.2 85.5 23C85.9 22.8 86 22.5 86 21.5C86 20.5 86.1 20.2 86.5 20C86.8 19.8 87 19.5 87 19C87 18.5 87.2 18.2 87.5 18C87.9 17.8 88 17.5 88 16.5C88 15.5 88.1 15.2 88.5 15C88.8 14.8 89 14.5 89 14C89 13.5 89.2 13.2 89.5 13C89.9 12.8 90 12.5 90 11.5C90 10.5 90.1 10.2 90.5 10C90.8 9.8 91 9.5 91 9C91 8.5 91.2 8.2 91.5 8C91.9 7.8 92 7.5 92 6.6C92 5.7 92.1 5.3 92.7 4.7C93.7 3.8 94.3 3.8 95.3 4.7L96 5.5L96 18.6C96 31.5 96 31.7 96.5 32C97 32.3 97 32.5 97 46.5C97 60.5 97 60.7 97.5 61C98 61.3 98 61.5 98 75.5C98 89.5 98 89.7 98.5 90C99 90.3 99 90.5 99 101.5C99 112.5 99 112.7 99.5 113C100 113.3 100 113.5 100 125C100 136.5 100 136.7 100.5 137C101 137.3 101 137.5 101 147.5C101 157.5 101 157.7 101.5 158C102 158.3 102 158.5 102 168.5C102 178.5 102 178.7 102.5 179C103 179.3 103 179.5 103 189.5C103 199.4 103 199.7 103.5 200C103.8 200.1 104 200.6 104 201.1L104.1 201.9L107 201.9L109.9 201.9L109.9 198.6C110 195.5 110 195.3 109.5 195C109 194.7 109 194.5 109 186.5C109 178.5 109 178.3 108.5 178C108 177.7 108 177.5 108 169C108 160.5 108 160.3 107.5 160C107 159.7 107 159.5 107 151.5C107 143.5 107 143.3 106.5 143C106 142.7 106 142.5 106 134.5C106 126.5 106 126.3 105.5 126C105 125.7 105 125.5 105 118C105 110.5 105 110.3 104.5 110C104 109.7 104 109.5 104 101C104 92.5 104 92.3 103.5 92C103 91.7 103 91.5 103 82.5C103 73.5 103 73.3 102.5 73C102 72.7 102 72.5 102 64C102 55.5 102 55.3 101.5 55C101 54.7 101 54.5 101 45.5C101 36.5 101 36.3 100.5 36C100 35.7 100 35.5 100 26C100 16.5 100 16.3 99.5 16C99 15.8 99 15.5 99 13.1C99 10.5 99 10.4 99.7 9.7C100.8 8.7 101.3 8.8 102.8 10.2C103.9 11.4 104 11.6 104 12.6C104 13.5 104.1 13.8 104.5 14C104.8 14.2 105 14.5 105 15C105 15.5 105.2 15.8 105.5 16C105.8 16.2 106 16.5 106 17C106 17.5 106.2 17.8 106.5 18C106.9 18.2 107 18.5 107 19.5C107 20.5 107.1 20.8 107.5 21C107.8 21.2 108 21.5 108 22C108 22.5 108.2 22.8 108.5 23C108.8 23.2 109 23.5 109 24C109 24.5 109.2 24.8 109.5 25C109.9 25.2 110 25.5 110 26.5C110 27.5 110.1 27.8 110.5 28C110.8 28.2 111 28.5 111 29C111 29.5 111.2 29.8 111.5 30C111.8 30.2 112 30.5 112 31C112 31.5 112.2 31.8 112.5 32C112.9 32.2 113 32.5 113 33.5C113 34.5 113.1 34.8 113.5 35C113.8 35.2 114 35.5 114 36C114 36.5 114.2 36.8 114.5 37C114.8 37.2 115 37.5 115 38C115 38.5 115.2 38.8 115.5 39C115.9 39.2 116 39.5 116 40.5C116 41.5 116.1 41.8 116.5 42C116.8 42.2 117 42.5 117 43C117 43.5 117.2 43.8 117.5 44C117.8 44.2 118 44.5 118 45C118 45.5 118.2 45.8 118.5 46C118.9 46.2 119 46.5 119 47.5C119 48.5 119.1 48.8 119.5 49C119.8 49.2 120 49.5 120 50C120 50.5 120.2 50.8 120.5 51C120.8 51.2 121 51.5 121 52C121 52.5 121.2 52.8 121.5 53C121.9 53.2 122 53.5 122 54.5C122 55.5 122.1 55.8 122.5 56C122.8 56.2 123 56.5 123 57C123 57.5 123.2 57.8 123.5 58C123.9 58.2 124 58.5 124 59.5C124 60.5 124.1 60.8 124.5 61C124.8 61.2 125 61.5 125 62C125 62.5 125.2 62.8 125.5 63C125.8 63.2 126 63.5 126 64C126 64.5 126.2 64.8 126.5 65C126.9 65.2 127 65.5 127 66.5C127 67.5 127.1 67.8 127.5 68C127.8 68.2 128 68.5 128 69C128 69.5 128.2 69.8 128.5 70C128.8 70.2 129 70.5 129 71C129 71.5 129.2 71.8 129.5 72C129.9 72.2 130 72.5 130 73.5C130 74.5 130.1 74.8 130.5 75C130.8 75.2 131 75.5 131 76C131 76.5 131.2 76.8 131.5 77C131.9 77.2 132 77.5 132 78.5C132 79.5 132.1 79.8 132.5 80C132.8 80.2 133 80.5 133 81C133 81.5 133.2 81.8 133.5 82C133.8 82.2 134 82.5 134 83C134 83.5 134.2 83.8 134.5 84C134.9 84.2 135 84.5 135 85.5C135 86.5 135.1 86.8 135.5 87C135.8 87.2 136 87.5 136 88C136 88.5 136.2 88.8 136.5 89C136.9 89.2 137 89.5 137 90.5C137 91.5 137.1 91.8 137.5 92C137.8 92.2 138 92.5 138 93C138 93.5 138.2 93.8 138.5 94C138.8 94.2 139 94.5 139 95C139 95.5 139.2 95.8 139.5 96C139.9 96.2 140 96.5 140 97.5C140 98.5 140.1 98.8 140.5 99C140.8 99.2 141 99.5 141 100C141 100.5 141.2 100.8 141.5 101C141.9 101.2 142 101.5 142 102.5C142 103.5 142.1 103.8 142.5 104C142.8 104.2 143 104.5 143 105C143 105.5 143.2 105.8 143.5 106C143.8 106.2 144 106.5 144 107C144 107.5 144.2 107.8 144.5 108C144.9 108.2 145 108.5 145 109.5C145 110.5 145.1 110.8 145.5 111C145.8 111.2 146 111.5 146 112C146 112.5 146.2 112.8 146.5 113C146.8 113.2 147 113.5 147 114C147 114.5 147.2 114.8 147.5 115C147.9 115.2 148 115.5 148 116.5C148 117.5 148.1 117.8 148.5 118C148.8 118.2 149 118.5 149 119C149 119.5 149.2 119.8 149.5 120C149.9 120.2 150 120.5 150 121.5C150 122.5 150.1 122.8 150.5 123C150.8 123.2 151 123.5 151 124C151 124.5 151.2 124.8 151.5 125C151.9 125.2 152 125.5 152 126.5C152 127.5 152.1 127.8 152.5 128C152.8 128.2 153 128.5 153 129C153 129.5 153.2 129.8 153.5 130C153.8 130.2 154 130.5 154 131C154 131.5 154.2 131.8 154.5 132C154.9 132.2 155 132.5 155 133.5C155 134.5 155.1 134.8 155.5 135C155.8 135.2 156 135.5 156 136C156 136.5 156.2 136.8 156.5 137C156.8 137.2 157 137.5 157 138C157 138.5 157.2 138.8 157.5 139C157.9 139.2 158 139.5 158 140.5C158 141.5 158.1 141.8 158.5 142C158.8 142.2 159 142.5 159 143C159 143.5 159.2 143.8 159.5 144C159.9 144.2 160 144.5 160 145.5C160 146.5 160.1 146.8 160.5 147C160.8 147.2 161 147.5 161 148C161 148.5 161.2 148.8 161.5 149C161.8 149.2 162 149.5 162 150C162 150.5 162.2 150.8 162.5 151C162.9 151.2 163 151.5 163 152.5C163 153.5 163.1 153.8 163.5 154C163.9 154.2 164 154.5 164 155.5C164 156.5 164.1 156.8 164.5 157C164.8 157.2 165 157.5 165 158C165 158.5 165.2 158.8 165.5 159C165.8 159.2 166 159.5 166 160C166 160.5 166.2 160.8 166.5 161C166.9 161.2 167 161.5 167 162.5C167 163.5 167.1 163.8 167.5 164C167.8 164.2 168 164.5 168 165C168 165.5 168.2 165.8 168.5 166C168.8 166.2 169 166.5 169 167C169 167.5 169.2 167.8 169.5 168C169.9 168.2 170 168.5 170 169.5C170 170.5 170.1 170.8 170.5 171C170.8 171.2 171 171.5 171 172C171 172.5 171.2 172.8 171.5 173C171.9 173.2 172 173.5 172 174.5C172 175.5 172.1 175.8 172.5 176C172.8 176.2 173 176.5 173 177C173 177.5 173.2 177.8 173.5 178C173.9 178.2 174 178.5 174 179.5C174 180.5 174.1 180.8 174.5 181C174.8 181.2 175 181.5 175 182C175 182.5 175.2 182.8 175.5 183C175.8 183.2 176 183.5 176 184C176 184.5 176.2 184.8 176.5 185C176.9 185.2 177 185.5 177 186.5C177 187.5 177.1 187.8 177.5 188C177.8 188.2 178 188.5 178 189C178 189.5 178.2 189.8 178.5 190C178.9 190.2 179 190.5 179 191.5C179 192.5 179.1 192.8 179.5 193C179.8 193.2 180 193.5 180 194C180 194.5 180.2 194.8 180.5 195C180.9 195.2 181 195.5 181 196.5C181 197.5 181.1 197.8 181.5 198C181.8 198.2 182 198.5 182 199C182 199.5 182.2 199.8 182.5 200C182.9 200.2 183 200.5 183 201.5C183 202.5 183.1 202.8 183.5 203C184.3 203.4 184.2 205.3 183.3 206.3L182.5 207L166.4 207C150.5 207 150.3 207 150 206.5C149.7 206 149.5 206 131.9 206.1L114.1 206.1L114 206.8C114 207.3 114.2 207.7 114.7 208.3L115.5 209L141.1 209C166.5 209 166.7 209 167 209.5C167.3 210 167.5 210 179.5 210C191.5 210 191.7 210 192 210.5C192.2 210.8 192.5 211 192.9 211C193.3 211 194 211.5 195.3 212.7L197 214.5L197 219.1C197 223.5 197 223.7 196.5 224C196.1 224.2 196 224.5 196 226C196 227.5 195.9 227.8 195.5 228C195.1 228.2 195 228.5 195 229.5C195 230.5 194.9 230.8 194.5 231C194.1 231.2 194 231.5 194 232.5C194 233.5 193.9 233.8 193.5 234C193.2 234.2 193 234.5 193 234.9C193 235.3 192.5 236 191.3 237.3L189.5 239L187.9 239C186.5 239 186.2 238.9 186 238.5C185.7 238 185.5 238 169.5 238C153.5 238 153.3 238 153 238.5C152.7 239 152.5 239 148 239C143.5 239 143.3 239 143 239.5C142.8 240 142.5 240 139.5 240C136.5 240 136.2 240 136 240.5C135.7 241 135.5 241 126 241C116.5 241 116.3 241 116 240.5C115.8 240 115.5 240 113 240C110.5 240 110.2 240 110 239.5C109.7 239 109.5 239 105 239C100.5 239 100.3 239 100 238.5C99.7 238 99.5 238 94.5 238C89.5 238 89.3 238 89 238.5C88.7 239 88.5 239 84.5 239C80.5 239 80.3 239 80 239.5C79.8 240 79.5 240 76.5 240C73.5 240 73.2 240 73 240.5C72.8 241 72.5 241 69 241C65.5 241 65.2 241 65 240.5ZM75 236.5C75.2 236 75.5 236 78.5 236C81.5 236 81.8 236 82 235.5C82.3 235 82.5 235 95 235C107.5 235 107.7 235 108 235.5C108.2 236 108.5 236 111 236C113.5 236 113.8 236 114 236.5C114.3 237 114.5 237 126 237C137.5 237 137.7 237 138 236.5C138.2 236 138.5 236 142 236C145.5 236 145.8 236 146 235.5C146.3 235 146.5 235 151.5 235C156.5 235 156.7 235 157 234.5C157.3 234 157.5 234 170 234C182.5 234 182.7 234 183 234.5C183.2 235 183.5 235 185.9 235C188.5 235 188.6 235 189.3 234.3C189.9 233.7 190 233.3 190 232.4C190 231.5 190.1 231.2 190.5 231C190.8 230.8 191 230.5 191 230C191 229.5 191.2 229.2 191.5 229C191.9 228.8 192 228.5 192 227C192 225.5 192.1 225.2 192.5 225C192.9 224.8 193 224.5 193 223C193 221.5 193.1 221.2 193.5 221C194.2 220.6 194.2 217.4 193.5 217C193.2 216.8 193 216.5 193 216.1C193 215 191.7 214 190.4 214C189.5 214 189.2 213.9 189 213.5C188.7 213 188.5 213 161.5 213C134.5 213 134.3 213 134 212.5C133.7 212 133.5 212 122.6 212L111.5 212L110.7 211.3C110.1 210.6 110 210.4 109.9 208.3L109.9 206.1L107 206.1L104.1 206.1L104.1 207.8C104 209.5 104 209.6 102.7 210.8L101.5 212L93.5 212C85.5 212 85.5 212 85 212.6L84.5 213.1L84 212.5L83.5 211.9L83 212.4L82.5 213L69.4 213C56.5 213 56.3 213 56 213.5C55.7 214 55.5 214 46 214C36.5 214 36.3 214 36 214.5C35.7 215 35.5 215 29.5 215C23.5 215 23.3 215 23 215.5C22.7 216 22.5 216 18.5 216C14.6 216 14.2 216 14 216.5C13.8 216.9 13.4 217 11.9 217.1C10.2 217.1 10.1 217.1 10 217.8C10 218.4 10.2 218.7 11 219.5C11.7 220.1 12 220.6 12 221.1C12 221.5 12.2 221.8 12.5 222C12.9 222.2 13 222.5 13 223.5C13 224.5 13.1 224.8 13.5 225C13.9 225.2 14 225.5 14 227C14 228.5 14.1 228.8 14.5 229C15 229.2 15 229.5 15 231.9C15 234.6 15 234.6 15.8 235.4L16.5 236.1L17 235.6C17.4 235 17.7 235 20.1 235C22.5 235 22.8 235 23 234.5C23.3 234 23.5 234 37.5 234C51.5 234 51.7 234 52 234.5C52.2 234.9 52.5 235 54.5 235C56.5 235 56.8 235.1 57 235.5C57.2 236 57.5 236 60 236C62.5 236 62.8 236 63 236.5C63.3 237 63.5 237 69 237C74.5 237 74.7 237 75 236.5ZM23 205.5C23.3 205 23.5 205 28.5 205C33.5 205 33.7 205 34 204.5C34.3 204 34.5 204 40.5 204C46.5 204 46.7 204 47 203.5C47.3 203 47.5 203 58 203C68.5 203 68.7 203 69 202.5C69.3 202 69.6 202 84.6 201.9L99.9 201.9L99.9 197.1C100 192.5 100 192.3 99.5 192C99 191.7 99 191.5 99 183C99 174.5 99 174.3 98.5 174C98 173.7 98 173.5 98 163C98 152.5 98 152.3 97.5 152C97 151.7 97 151.5 97 142C97 132.5 97 132.3 96.5 132.1C95.9 131.9 95.9 131.3 96.5 131C97.1 130.7 97.1 130.1 96.5 129.9C96 129.7 96 129.5 96 119C96 108.5 96 108.3 95.5 108C95 107.7 95 107.5 95 95C95 82.5 95 82.3 94.5 82C94 81.7 94 81.5 94 66.5C94 51.5 94 51.3 93.5 51C93 50.7 93 50.4 92.9 33.9L92.9 17.1L92 17.1L91.1 17.1L91 18.4C91 19.4 90.9 19.8 90.5 20C90.2 20.2 90 20.5 90 21C90 21.5 89.8 21.8 89.5 22C89.1 22.2 89 22.5 89 23.5C89 24.5 88.9 24.8 88.5 25C88.2 25.2 88 25.5 88 26C88 26.5 87.8 26.8 87.5 27C87.1 27.2 87 27.5 87 28.5C87 29.5 86.9 29.8 86.5 30C86.1 30.2 86 30.5 86 31.5C86 32.5 85.9 32.8 85.5 33C85.2 33.2 85 33.5 85 34C85 34.5 84.8 34.8 84.5 35C84.1 35.2 84 35.5 84 36.5C84 37.5 83.9 37.8 83.5 38C83.2 38.2 83 38.5 83 39C83 39.5 82.8 39.8 82.5 40C82.1 40.2 82 40.5 82 41.5C82 42.5 81.9 42.8 81.5 43C81.2 43.2 81 43.5 81 44C81 44.5 80.8 44.8 80.5 45C80.1 45.2 80 45.5 80 46.5C80 47.5 79.9 47.8 79.5 48C79.1 48.2 79 48.5 79 49.5C79 50.5 78.9 50.8 78.5 51C78.2 51.2 78 51.5 78 52C78 52.5 77.8 52.8 77.5 53C77.1 53.2 77 53.5 77 54.5C77 55.5 76.9 55.8 76.5 56C76.2 56.2 76 56.5 76 57C76 57.5 75.8 57.8 75.5 58C75.1 58.2 75 58.5 75 59.5C75 60.5 74.9 60.8 74.5 61C74.1 61.2 74 61.5 74 62.5C74 63.5 73.9 63.8 73.5 64C73.2 64.2 73 64.5 73 65C73 65.5 72.8 65.8 72.5 66C72.1 66.2 72 66.5 72 67.5C72 68.5 71.9 68.8 71.5 69C71.2 69.2 71 69.5 71 70C71 70.5 70.8 70.8 70.5 71C70.1 71.2 70 71.5 70 72.5C70 73.5 69.9 73.8 69.5 74C69.2 74.2 69 74.5 69 75C69 75.5 68.8 75.8 68.5 76C68.1 76.2 68 76.5 68 77.5C68 78.5 67.9 78.8 67.5 79C67.2 79.2 67 79.5 67 80C67 80.5 66.8 80.8 66.5 81C66.1 81.2 66 81.5 66 82.5C66 83.5 65.9 83.8 65.5 84C65.2 84.2 65 84.5 65 85C65 85.5 64.8 85.8 64.5 86C64.1 86.2 64 86.5 64 87.5C64 88.5 63.9 88.8 63.5 89C63.1 89.2 63 89.5 63 90.5C63 91.5 62.9 91.8 62.5 92C62.2 92.2 62 92.5 62 93C62 93.5 61.8 93.8 61.5 94C61.1 94.2 61 94.5 61 95.5C61 96.5 60.9 96.8 60.5 97C60.2 97.2 60 97.5 60 98C60 98.5 59.8 98.8 59.5 99C59.1 99.2 59 99.5 59 100.5C59 101.5 58.9 101.8 58.5 102C58.2 102.2 58 102.5 58 103C58 103.5 57.8 103.8 57.5 104C57.1 104.2 57 104.5 57 105.5C57 106.5 56.9 106.8 56.5 107C56.2 107.2 56 107.5 56 108C56 108.5 55.8 108.8 55.5 109C55.1 109.2 55 109.5 55 110.5C55 111.5 54.9 111.8 54.5 112C54.1 112.2 54 112.5 54 113.5C54 114.5 53.9 114.8 53.5 115C53.2 115.2 53 115.5 53 116C53 116.5 52.8 116.8 52.5 117C52.1 117.2 52 117.5 52 118.5C52 119.5 51.9 119.8 51.5 120C51.2 120.2 51 120.5 51 121C51 121.5 50.8 121.8 50.5 122C50.1 122.2 50 122.5 50 123.5C50 124.5 49.9 124.8 49.5 125C49.2 125.2 49 125.5 49 126C49 126.5 48.8 126.8 48.5 127C48.1 127.2 48 127.5 48 128.5C48 129.5 47.9 129.8 47.5 130C47.1 130.2 47 130.5 47 131.5C47 132.5 46.9 132.8 46.5 133C46.2 133.2 46 133.5 46 134C46 134.5 45.8 134.8 45.5 135C45.1 135.2 45 135.5 45 136.5C45 137.5 44.9 137.8 44.5 138C44.2 138.2 44 138.5 44 139C44 139.5 43.8 139.8 43.5 140C43.1 140.2 43 140.5 43 141.5C43 142.5 42.9 142.8 42.5 143C42.2 143.2 42 143.5 42 144C42 144.5 41.8 144.8 41.5 145C41.1 145.2 41 145.5 41 146.5C41 147.5 40.9 147.8 40.5 148C40.1 148.2 40 148.5 40 149.5C40 150.5 39.9 150.8 39.5 151C39.2 151.2 39 151.5 39 152C39 152.5 38.8 152.8 38.5 153C38.1 153.2 38 153.5 38 154.5C38 155.5 37.9 155.8 37.5 156C37.2 156.2 37 156.5 37 157C37 157.5 36.8 157.8 36.5 158C36.1 158.2 36 158.5 36 159.5C36 160.5 35.9 160.8 35.5 161C35.1 161.2 35 161.5 35 162.5C35 163.5 34.9 163.8 34.5 164C34.2 164.2 34 164.5 34 165C34 165.5 33.8 165.8 33.5 166C33.1 166.2 33 166.5 33 167.5C33 168.5 32.9 168.8 32.5 169C32.2 169.2 32 169.5 32 170C32 170.5 31.8 170.8 31.5 171C31.1 171.2 31 171.5 31 172.5C31 173.5 30.9 173.8 30.5 174C30.1 174.2 30 174.5 30 175.5C30 176.5 29.9 176.8 29.5 177C29.2 177.2 29 177.5 29 178C29 178.5 28.8 178.8 28.5 179C28.1 179.2 28 179.5 28 180.5C28 181.5 27.9 181.8 27.5 182C27.2 182.2 27 182.5 27 183C27 183.5 26.8 183.8 26.5 184C26.1 184.2 26 184.5 26 185.5C26 186.5 25.9 186.8 25.5 187C25.1 187.2 25 187.5 25 188.5C25 189.5 24.9 189.8 24.5 190C24.2 190.2 24 190.5 24 191C24 191.5 23.8 191.8 23.5 192C23.1 192.2 23 192.5 23 193.5C23 194.5 22.9 194.8 22.5 195C22.2 195.2 22 195.5 22 196C22 196.5 21.8 196.8 21.5 197C21.1 197.2 21 197.5 21 198.5C21 199.5 20.9 199.8 20.5 200C20.1 200.2 20 200.5 20 201.5C20 202.5 19.9 202.8 19.5 203C19.2 203.2 19 203.5 19 204C19 204.6 18.9 204.8 18.5 204.9C18 205.1 17.8 205.5 18.2 205.8C18.3 205.9 19.3 206 20.5 206C22.5 206 22.8 205.9 23 205.5ZM179.9 202.5C180 202.2 179.8 202 179.5 201.9C179.1 201.8 179 201.6 179 201C179 200.5 178.8 200.2 178.5 200C178.2 199.8 178 199.5 178 199C178 198.5 177.8 198.2 177.5 198C177.1 197.8 177 197.5 177 196.5C177 195.5 176.9 195.2 176.5 195C176.2 194.8 176 194.5 176 194C176 193.5 175.8 193.2 175.5 193C175.1 192.8 175 192.5 175 191.5C175 190.5 174.9 190.2 174.5 190C174.2 189.8 174 189.5 174 189C174 188.5 173.8 188.2 173.5 188C173.2 187.8 173 187.5 173 187C173 186.5 172.8 186.2 172.5 186C172.1 185.8 172 185.5 172 184.5C172 183.5 171.9 183.2 171.5 183C171.2 182.8 171 182.5 171 182C171 181.5 170.8 181.2 170.5 181C170.1 180.8 170 180.5 170 179.5C170 178.5 169.9 178.2 169.5 178C169.2 177.8 169 177.5 169 177C169 176.5 168.8 176.2 168.5 176C168.1 175.8 168 175.5 168 174.5C168 173.5 167.9 173.2 167.5 173C167.2 172.8 167 172.5 167 172C167 171.5 166.8 171.2 166.5 171C166.2 170.8 166 170.5 166 170C166 169.5 165.8 169.2 165.5 169C165.1 168.8 165 168.5 165 167.5C165 166.5 164.9 166.2 164.5 166C164.2 165.8 164 165.5 164 165C164 164.5 163.8 164.2 163.5 164C163.1 163.8 163 163.5 163 162.5C163 161.5 162.9 161.2 162.5 161C162.2 160.8 162 160.5 162 160C162 159.5 161.8 159.2 161.5 159C161.1 158.8 161 158.5 161 157.5C161 156.5 160.9 156.2 160.5 156C160.2 155.8 160 155.5 160 155C160 154.5 159.8 154.2 159.5 154C159.1 153.8 159 153.5 159 152.5C159 151.5 158.9 151.2 158.5 151C158.2 150.8 158 150.5 158 150C158 149.5 157.8 149.2 157.5 149C157.2 148.8 157 148.5 157 148C157 147.5 156.8 147.2 156.5 147C156.1 146.8 156 146.5 156 145.5C156 144.5 155.9 144.2 155.5 144C155.2 143.8 155 143.5 155 143C155 142.5 154.8 142.2 154.5 142C154.2 141.8 154 141.5 154 141C154 140.5 153.8 140.2 153.5 140C153.1 139.8 153 139.5 153 138.5C153 137.5 152.9 137.2 152.5 137C152.1 136.8 152 136.5 152 135.5C152 134.5 151.9 134.2 151.5 134C151.2 133.8 151 133.5 151 133C151 132.5 150.8 132.2 150.5 132C150.2 131.8 150 131.5 150 131C150 130.5 149.8 130.2 149.5 130C149.1 129.8 149 129.5 149 128.5C149 127.5 148.9 127.2 148.5 127C148.2 126.8 148 126.5 148 126C148 125.5 147.8 125.2 147.5 125C147.2 124.8 147 124.5 147 124C147 123.5 146.8 123.2 146.5 123C146.1 122.8 146 122.5 146 121.5C146 120.5 145.9 120.2 145.5 120C145.2 119.8 145 119.5 145 119C145 118.5 144.8 118.2 144.5 118C144.1 117.8 144 117.5 144 116.5C144 115.5 143.9 115.2 143.5 115C143.2 114.8 143 114.5 143 114C143 113.5 142.8 113.2 142.5 113C142.2 112.8 142 112.5 142 112C142 111.5 141.8 111.2 141.5 111C141.1 110.8 141 110.5 141 109.5C141 108.5 140.9 108.2 140.5 108C140.2 107.8 140 107.5 140 107C140 106.5 139.8 106.2 139.5 106C139.1 105.8 139 105.5 139 104.5C139 103.5 138.9 103.2 138.5 103C138.2 102.8 138 102.5 138 102C138 101.5 137.8 101.2 137.5 101C137.2 100.8 137 100.5 137 100C137 99.5 136.8 99.2 136.5 99C136.1 98.8 136 98.5 136 97.5C136 96.5 135.9 96.2 135.5 96C135.2 95.8 135 95.5 135 95C135 94.5 134.8 94.2 134.5 94C134.1 93.8 134 93.5 134 92.5C134 91.5 133.9 91.2 133.5 91C133.2 90.8 133 90.5 133 90C133 89.5 132.8 89.2 132.5 89C132.2 88.8 132 88.5 132 88C132 87.5 131.8 87.2 131.5 87C131.1 86.8 131 86.5 131 85.5C131 84.5 130.9 84.2 130.5 84C130.2 83.8 130 83.5 130 83C130 82.5 129.8 82.2 129.5 82C129.2 81.8 129 81.5 129 81C129 80.5 128.8 80.2 128.5 80C128.1 79.8 128 79.5 128 78.5C128 77.5 127.9 77.2 127.5 77C127.2 76.8 127 76.5 127 76C127 75.5 126.8 75.2 126.5 75C126.2 74.8 126 74.5 126 74C126 73.5 125.8 73.2 125.5 73C125.1 72.8 125 72.5 125 71.5C125 70.5 124.9 70.2 124.5 70C124.2 69.8 124 69.5 124 69C124 68.5 123.8 68.2 123.5 68C123.1 67.8 123 67.5 123 66.5C123 65.5 122.9 65.2 122.5 65C122.2 64.8 122 64.5 122 64C122 63.5 121.8 63.2 121.5 63C121.2 62.8 121 62.5 121 62C121 61.5 120.8 61.2 120.5 61C120.1 60.8 120 60.5 120 59.5C120 58.5 119.9 58.2 119.5 58C119.2 57.8 119 57.5 119 57C119 56.5 118.8 56.2 118.5 56C118.2 55.8 118 55.5 118 55C118 54.5 117.8 54.2 117.5 54C117.1 53.8 117 53.5 117 52.5C117 51.5 116.9 51.2 116.5 51C116.2 50.8 116 50.5 116 50C116 49.5 115.8 49.2 115.5 49C115.1 48.8 115 48.5 115 47.5C115 46.5 114.9 46.2 114.5 46C114.2 45.8 114 45.5 114 45C114 44.5 113.8 44.2 113.5 44C113.2 43.8 113 43.5 113 43C113 42.5 112.8 42.2 112.5 42C112.1 41.8 112 41.5 112 40.5C112 39.5 111.9 39.2 111.5 39C111.2 38.8 111 38.5 111 38C111 37.5 110.8 37.2 110.5 37C110.2 36.8 110 36.5 110 36C110 35.5 109.8 35.2 109.5 35C109.1 34.8 109 34.5 109 33.5C109 32.5 108.9 32.2 108.5 32C108.2 31.8 108 31.5 108 31C108 30.5 107.8 30.2 107.5 30C107.2 29.8 107 29.5 107 29C107 28.5 106.8 28.2 106.5 28C106.1 27.8 106 27.5 106 26.5C106 25.5 105.9 25.2 105.5 25C105.2 24.8 105 24.5 105 24.1C105 23.3 103.7 21.8 103.3 22.1C102.8 22.4 103 23.6 103.5 24.1C104 24.5 104 24.8 104 33.1C104 41.5 104 41.7 104.5 42C105 42.3 105 42.5 105 51C105 59.5 105 59.7 105.5 60C106 60.3 106 60.5 106 69C106 77.5 106 77.7 106.5 78C107 78.3 107 78.5 107 87.5C107 96.5 107 96.7 107.5 97C108 97.3 108 97.5 108 106C108 114.5 108 114.7 108.5 115C109 115.3 109 115.5 109 123.5C109 131.5 109 131.7 109.5 132C110 132.3 110 132.5 110 140.5C110 148.5 110 148.7 110.5 149C111 149.3 111 149.5 111 157.5C111 165.5 111 165.7 111.5 166C112 166.3 112 166.5 112 175.5C112 184.5 112 184.7 112.5 185C113 185.3 113 185.5 113 193.4L113 201.5L113.7 202.3L114.4 203L147.1 202.9C177.1 202.9 179.9 202.8 179.9 202.5Z"/></svg>